<?xml version="1.0" encoding="UTF-8"?>
<svg version="1.1" xmlns="http://www.w3.org/2000/svg" width="204" height="192">
<path d="M0 0 C67.32 0 134.64 0 204 0 C204 63.36 204 126.72 204 192 C136.68 192 69.36 192 0 192 C0 128.64 0 65.28 0 0 Z " fill="#FEFEFE" transform="translate(0,0)"/>
<path d="M0 0 C1.42993164 1.45117188 1.42993164 1.45117188 3.09765625 3.46875 C6.99190626 8.04855763 11.16334082 12.27667712 15.4375 16.5 C16.53481445 17.59054688 16.53481445 17.59054688 17.65429688 18.703125 C19.43389824 20.47109499 21.21580918 22.23666378 23 24 C21.10253906 24.57421875 21.10253906 24.57421875 19 25 C17.359375 23.8125 17.359375 23.8125 15.75 22 C13.22147805 19.27028383 10.65484269 16.77802343 7.8125 14.375 C4.83216807 11.81133583 2.32305634 9.19420247 0 6 C-1.94074861 6.27617533 -1.94074861 6.27617533 -4 7 C-4.99 8.485 -4.99 8.485 -6 10 C-6.66 10 -7.32 10 -8 10 C-8.20882812 10.54011719 -8.41765625 11.08023438 -8.6328125 11.63671875 C-10.52519235 14.9078325 -13.12403934 17.27594275 -15.875 19.8125 C-16.66970703 20.5849707 -16.66970703 20.5849707 -17.48046875 21.37304688 C-19.0546875 22.83203125 -19.0546875 22.83203125 -22 25 C-24.3828125 24.82421875 -24.3828125 24.82421875 -26 24 C-24.5459375 22.7625 -24.5459375 22.7625 -23.0625 21.5 C-19.38987246 17.8878628 -19.17387578 15.04239768 -19 10 C-18.01 10 -17.02 10 -16 10 C-16 10.99 -16 11.98 -16 13 C-12.07982773 9.63700957 -8.21226796 6.2829586 -4.625 2.5625 C-2 0 -2 0 0 0 Z " fill="#1F2020" transform="translate(94,67)"/>
<path d="M0 0 C0.66 0.66 1.32 1.32 2 2 C1.53846154 8.46153846 1.53846154 8.46153846 -1 11 C-4.4375 11.375 -4.4375 11.375 -8 11 C-10 9.3125 -10 9.3125 -11 7 C-10.86340503 4.1998031 -10.31153277 2.51922128 -8.875 0.125 C-5.81663109 -1.71002135 -3.34391796 -0.79038061 0 0 Z " fill="#262727" transform="translate(76,99)"/>
<path d="M0 0 C5.89507256 0.35727712 9.634641 4.34064158 13.3828125 8.5546875 C14.59750203 10.02912196 15.7989222 11.51445641 17 13 C20.3471735 16.52334052 23.90546556 19.67232545 27.64453125 22.765625 C28.09183594 23.17296875 28.53914063 23.5803125 29 24 C29 24.33 29 24.66 29 25 C26.85864258 25.32592773 26.85864258 25.32592773 24 25 C21.87125281 23.31954832 20.11946111 21.72726734 18.26171875 19.78515625 C17.73608841 19.25482285 17.21045807 18.72448944 16.66889954 18.17808533 C14.99639696 16.48425874 13.34234064 14.77356726 11.6875 13.0625 C10.555136 11.91362876 9.42168404 10.76582877 8.28710938 9.61914062 C0 1.19541227 0 1.19541227 0 0 Z " fill="#1B1E1D" transform="translate(98,67)"/>
<path d="M0 0 C4.87010096 0.40551991 7.28133359 2.75064075 10.51953125 6.12890625 C11.02296555 6.63800034 11.52639984 7.14709442 12.04508972 7.6716156 C13.64389465 9.29273211 15.22819606 10.92722134 16.8125 12.5625 C17.89685713 13.66692883 18.98213408 14.77045537 20.06835938 15.87304688 C22.72300912 18.57169448 25.36474126 21.28241911 28 24 C26.13208008 24.60375977 26.13208008 24.60375977 24 25 C21.88671875 23.33984375 21.88671875 23.33984375 19.6875 20.9375 C17.01347777 18.10154843 14.40044923 15.39610434 11.375 12.9375 C7.07489875 9.3507333 2.52486868 5.04973736 0 0 Z " fill="#191A1A" transform="translate(108,67)"/>
<path d="M0 0 C6.625 -0.25 6.625 -0.25 10 2 C9.67 5.3 9.34 8.6 9 12 C8.34 12 7.68 12 7 12 C6.34 11.01 5.68 10.02 5 9 C4.01 8.67 3.02 8.34 2 8 C2 9.32 2 10.64 2 12 C1.34 12 0.68 12 0 12 C0 8.04 0 4.08 0 0 Z " fill="#373838" transform="translate(81,98)"/>
<path d="M0 0 C3.23475448 1.61737724 4.70572021 2.47629223 7 5 C7.66 3.35 8.32 1.7 9 0 C9.99 0 10.98 0 12 0 C12 3.96 12 7.92 12 12 C11.34 12 10.68 12 10 12 C10 9.69 10 7.38 10 5 C9.34 5 8.68 5 8 5 C7.67 6.32 7.34 7.64 7 9 C6.34 9 5.68 9 5 9 C4.34 8.01 3.68 7.02 3 6 C2.67 7.98 2.34 9.96 2 12 C1.34 12 0.68 12 0 12 C0 8.04 0 4.08 0 0 Z " fill="#424343" transform="translate(51,98)"/>
<path d="M0 0 C2.97 0 5.94 0 9 0 C9 0.66 9 1.32 9 2 C6.69 2 4.38 2 2 2 C2 2.99 2 3.98 2 5 C3.98 5 5.96 5 8 5 C8 5.66 8 6.32 8 7 C6.02 7 4.04 7 2 7 C2 7.99 2 8.98 2 10 C4.31 10 6.62 10 9 10 C9 10.66 9 11.32 9 12 C6.03 12 3.06 12 0 12 C0 8.04 0 4.08 0 0 Z " fill="#363737" transform="translate(144,98)"/>
<path d="M0 0 C0 0.66 0 1.32 0 2 C-2.31 2 -4.62 2 -7 2 C-7.66 3.98 -8.32 5.96 -9 8 C-6.69 8.33 -4.38 8.66 -2 9 C-2 8.01 -2 7.02 -2 6 C-2.99 5.67 -3.98 5.34 -5 5 C-3.35 5 -1.7 5 0 5 C0.042721 6.66611905 0.04063832 8.33382885 0 10 C-1 11 -1 11 -4.375 11.25 C-8 11 -8 11 -9.9375 9.875 C-11.52225401 7.07837528 -11.45947423 5.1506804 -11 2 C-7.8024827 -1.96492145 -4.62667537 -0.97871979 0 0 Z " fill="#292A2A" transform="translate(141,99)"/>
<path d="M0 0 C0 0.33 0 0.66 0 1 C-2.31 1.33 -4.62 1.66 -7 2 C-7 3.98 -7 5.96 -7 8 C-4.03 8.495 -4.03 8.495 -1 9 C-1 8.01 -1 7.02 -1 6 C-1.99 5.67 -2.98 5.34 -4 5 C-2.68 5 -1.36 5 0 5 C0.042721 6.66611905 0.04063832 8.33382885 0 10 C-1 11 -1 11 -4.375 11.25 C-8 11 -8 11 -10 9.9375 C-11.63378851 6.77203476 -10.85267564 4.34979714 -10 1 C-6.1496895 -1.56687367 -4.41430237 -0.83288724 0 0 Z " fill="#333433" transform="translate(114,99)"/>
<path d="M0 0 C2.5625 0.3125 2.5625 0.3125 4.375 1.4375 C6.05356106 4.08785957 5.76700238 6.24496424 5.5625 9.3125 C5.2325 9.3125 4.9025 9.3125 4.5625 9.3125 C4.5625 7.6625 4.5625 6.0125 4.5625 4.3125 C3.5725 4.8075 3.5725 4.8075 2.5625 5.3125 C2.5625 6.3025 2.5625 7.2925 2.5625 8.3125 C0.2525 7.9825 -2.0575 7.6525 -4.4375 7.3125 C-4.5625 4.9375 -4.5625 4.9375 -4.4375 2.3125 C-2.4375 0.3125 -2.4375 0.3125 0 0 Z " fill="#D5D5D5" transform="translate(136.4375,99.6875)"/>
<path d="M0 0 C2.5625 0.1875 2.5625 0.1875 4.5625 2.1875 C4.75 4.75 4.75 4.75 4.5625 7.1875 C3.5625 8.1875 3.5625 8.1875 0.5625 8.3125 C-2.4375 8.1875 -2.4375 8.1875 -3.4375 7.1875 C-3.5625 4.1875 -3.5625 4.1875 -3.4375 1.1875 C-2.4375 0.1875 -2.4375 0.1875 0 0 Z " fill="#E6E7E7" transform="translate(71.4375,99.8125)"/>
<path d="M0 0 C1.134375 0.020625 2.26875 0.04125 3.4375 0.0625 C2.4475 0.7225 1.4575 1.3825 0.4375 2.0625 C1.7575 2.3925 3.0775 2.7225 4.4375 3.0625 C4.4375 5.0425 4.4375 7.0225 4.4375 9.0625 C4.1075 9.0625 3.7775 9.0625 3.4375 9.0625 C3.4375 7.4125 3.4375 5.7625 3.4375 4.0625 C3.1075 5.3825 2.7775 6.7025 2.4375 8.0625 C0.43795254 8.10504356 -1.56291636 8.10330783 -3.5625 8.0625 C-4.5625 7.0625 -4.5625 7.0625 -4.6875 4.0625 C-4.50687014 -0.27261656 -4.44520527 0.07798606 0 0 Z " fill="#BBBCBC" transform="translate(110.5625,99.9375)"/>
<path d="M0 0 C0.99 0.33 1.98 0.66 3 1 C2.67 2.32 2.34 3.64 2 5 C1.34 5 0.68 5 0 5 C-0.33 5.99 -0.66 6.98 -1 8 C0.32 8 1.64 8 3 8 C3.33 7.34 3.66 6.68 4 6 C6 8 6 8 6 12 C5.34 12 4.68 12 4 12 C4 11.01 4 10.02 4 9 C1.02934491 9.34227572 1.02934491 9.34227572 -2 10 C-2.33 10.66 -2.66 11.32 -3 12 C-3.66 12 -4.32 12 -5 12 C-4.54738642 10.56068883 -4.08767021 9.12361001 -3.625 7.6875 C-3.24214844 6.48673828 -3.24214844 6.48673828 -2.8515625 5.26171875 C-2 3 -2 3 0 0 Z " fill="#252625" transform="translate(122,98)"/>
<path d="M0 0 C0.66 0 1.32 0 2 0 C2 1.32 2 2.64 2 4 C2.66 4.33 3.32 4.66 4 5 C2.61166236 9.41743795 0.60286648 12.0833938 -3 15 C-5.1640625 14.6328125 -5.1640625 14.6328125 -7 14 C-6.030625 13.175 -5.06125 12.35 -4.0625 11.5 C-0.38987246 7.8878628 -0.17387578 5.04239768 0 0 Z " fill="#1C1E1D" transform="translate(75,77)"/>
<path d="M0 0 C2.31 0 4.62 0 7 0 C7 2.31 7 4.62 7 7 C4.69 7 2.38 7 0 7 C0 4.69 0 2.38 0 0 Z " fill="#707271" transform="translate(89,79)"/>
<path d="M0 0 C2.97 0 5.94 0 9 0 C9 0.66 9 1.32 9 2 C7.68 2 6.36 2 5 2 C5 5.3 5 8.6 5 12 C4.34 12 3.68 12 3 12 C3 8.7 3 5.4 3 2 C2.01 2 1.02 2 0 2 C0 1.34 0 0.68 0 0 Z " fill="#2A2B2B" transform="translate(93,98)"/>
<path d="M0 0 C3.35954694 0.44464592 4.96614217 1.6229246 7.25 4.0625 C7.77078125 4.61035156 8.2915625 5.15820312 8.828125 5.72265625 C9.21484375 6.14417969 9.6015625 6.56570312 10 7 C9.67 7.99 9.34 8.98 9 10 C5.28631113 8.76210371 4.22645819 7.14775123 2 4 C2 3.34 2 2.68 2 2 C1.01 1.67 0.02 1.34 -1 1 C-0.67 0.67 -0.34 0.34 0 0 Z " fill="#161818" transform="translate(92,69)"/>
<path d="M0 0 C0.33 0.99 0.66 1.98 1 3 C2.65 2.34 4.3 1.68 6 1 C6 2.32 6 3.64 6 5 C3.5 6.75 3.5 6.75 1 8 C0.67 5.36 0.34 2.72 0 0 Z " fill="#282A2A" transform="translate(77,77)"/>
<path d="M0 0 C2.71675995 0.36712972 4.61063713 0.72744599 6.875 2.3125 C7.431875 3.1478125 7.431875 3.1478125 8 4 C7.5703125 6.10546875 7.5703125 6.10546875 7 8 C5.83035398 6.8572081 4.66435444 5.71068285 3.5 4.5625 C2.8503125 3.92441406 2.200625 3.28632812 1.53125 2.62890625 C0 1 0 1 0 0 Z " fill="#121413" transform="translate(98,67)"/>
<path d="M0 0 C0.99 0.33 1.98 0.66 3 1 C3.6875 3.0625 3.6875 3.0625 4 5 C5.65 5.33 7.3 5.66 9 6 C7.25 7.125 7.25 7.125 5 8 C2.8125 7.5 2.8125 7.5 1 6 C0.25 2.875 0.25 2.875 0 0 Z " fill="#414242" transform="translate(65,102)"/>
<path d="M0 0 C0.99 0.33 1.98 0.66 3 1 C3 1.66 3 2.32 3 3 C4.32 3 5.64 3 7 3 C7 3.99 7 4.98 7 6 C4.69 5.67 2.38 5.34 0 5 C0 3.35 0 1.7 0 0 Z " fill="#E0E0E0" transform="translate(132,102)"/>
<path d="M0 0 C0.66 0 1.32 0 2 0 C2 0.66 2 1.32 2 2 C3.32 2 4.64 2 6 2 C6 2.99 6 3.98 6 5 C4.02 5 2.04 5 0 5 C-0.5625 3.0625 -0.5625 3.0625 -1 1 C-0.67 0.67 -0.34 0.34 0 0 Z " fill="#E2E2E2" transform="translate(107,103)"/>
<path d="M0 0 C0.99 0.33 1.98 0.66 3 1 C2.67 2.32 2.34 3.64 2 5 C1.34 5 0.68 5 0 5 C-0.66 5.99 -1.32 6.98 -2 8 C-2.33 7.01 -2.66 6.02 -3 5 C-1.5625 2.3125 -1.5625 2.3125 0 0 Z " fill="#2C2D2D" transform="translate(122,98)"/>
<path d="M0 0 C3.36591866 1.44253657 5.51047079 3.33264727 8 6 C3.50347222 6.36458333 3.50347222 6.36458333 1.1875 4.6875 C0 3 0 3 0 0 Z " fill="#242525" transform="translate(119,86)"/>
<path d="M0 0 C0.66 0 1.32 0 2 0 C2 1.32 2 2.64 2 4 C2.66 4.33 3.32 4.66 4 5 C3.34 6.32 2.68 7.64 2 9 C1.34 8.67 0.68 8.34 0 8 C0 5.36 0 2.72 0 0 Z " fill="#060A08" transform="translate(75,77)"/>
<path d="M0 0 C1.65 0 3.3 0 5 0 C5 1.65 5 3.3 5 5 C2 6 2 6 -0.1875 5.0625 C-0.785625 4.711875 -1.38375 4.36125 -2 4 C-0.35 4 1.3 4 3 4 C3 3.01 3 2.02 3 1 C2.01 0.67 1.02 0.34 0 0 Z " fill="#383939" transform="translate(136,104)"/>
<path d="M0 0 C1.65 0 3.3 0 5 0 C5 1.32 5 2.64 5 4 C3.35 4 1.7 4 0 4 C0 2.68 0 1.36 0 0 Z " fill="#E2E3E3" transform="translate(83,100)"/>
<path d="M0 0 C1.093125 0.226875 2.18625 0.45375 3.3125 0.6875 C3.3125 1.3475 3.3125 2.0075 3.3125 2.6875 C-0.02083333 2.6875 -3.35416667 2.6875 -6.6875 2.6875 C-4.58035839 -0.41123767 -3.86755884 -0.32775922 0 0 Z " fill="#383938" transform="translate(137.6875,98.3125)"/>
<path d="M0 0 C0.66 1.32 1.32 2.64 2 4 C0.02 4.33 -1.96 4.66 -4 5 C-3.6875 3.0625 -3.6875 3.0625 -3 1 C-2.01 0.67 -1.02 0.34 0 0 Z " fill="#9FA09F" transform="translate(125,101)"/>
<path d="M0 0 C0.99 0.33 1.98 0.66 3 1 C3 1.99 3 2.98 3 4 C2.34 4 1.68 4 1 4 C1 6.64 1 9.28 1 12 C0.67 12 0.34 12 0 12 C0 8.04 0 4.08 0 0 Z " fill="#090909" transform="translate(51,98)"/>
<path d="M0 0 C1 2 2 4 3 6 C2.34 6 1.68 6 1 6 C1 6.66 1 7.32 1 8 C0.01 7.67 -0.98 7.34 -2 7 C-1.34 4.69 -0.68 2.38 0 0 Z " fill="#D0D0D0" transform="translate(129,103)"/>
<path d="M0 0 C1.32 1.32 2.64 2.64 4 4 C3.34 4 2.68 4 2 4 C1.67 4.66 1.34 5.32 1 6 C0.01 4.68 -0.98 3.36 -2 2 C-1.34 1.34 -0.68 0.68 0 0 Z " fill="#232524" transform="translate(102,77)"/>
</svg>
